<svg width="104" height="98" viewBox="0 0 104 98" fill="none" xmlns="http://www.w3.org/2000/svg">
<path d="M45.1045 77.624V86H43.4245V80.552L41.1805 86H39.9085L37.6525 80.552V86H35.9725V77.624H37.8805L40.5445 83.852L43.2085 77.624H45.1045ZM49.7175 86.108C49.0775 86.108 48.5015 85.968 47.9895 85.688C47.4775 85.4 47.0735 84.996 46.7775 84.476C46.4895 83.956 46.3455 83.356 46.3455 82.676C46.3455 81.996 46.4935 81.396 46.7895 80.876C47.0935 80.356 47.5055 79.956 48.0255 79.676C48.5455 79.388 49.1255 79.244 49.7655 79.244C50.4055 79.244 50.9855 79.388 51.5055 79.676C52.0255 79.956 52.4335 80.356 52.7295 80.876C53.0335 81.396 53.1855 81.996 53.1855 82.676C53.1855 83.356 53.0295 83.956 52.7175 84.476C52.4135 84.996 51.9975 85.4 51.4695 85.688C50.9495 85.968 50.3655 86.108 49.7175 86.108ZM49.7175 84.644C50.0215 84.644 50.3055 84.572 50.5695 84.428C50.8415 84.276 51.0575 84.052 51.2175 83.756C51.3775 83.46 51.4575 83.1 51.4575 82.676C51.4575 82.044 51.2895 81.56 50.9535 81.224C50.6255 80.88 50.2215 80.708 49.7415 80.708C49.2615 80.708 48.8575 80.88 48.5295 81.224C48.2095 81.56 48.0495 82.044 48.0495 82.676C48.0495 83.308 48.2055 83.796 48.5175 84.14C48.8375 84.476 49.2375 84.644 49.7175 84.644ZM53.9858 82.652C53.9858 81.98 54.1178 81.384 54.3818 80.864C54.6538 80.344 55.0218 79.944 55.4858 79.664C55.9498 79.384 56.4658 79.244 57.0338 79.244C57.4658 79.244 57.8778 79.34 58.2698 79.532C58.6618 79.716 58.9738 79.964 59.2058 80.276V77.12H60.9098V86H59.2058V85.016C58.9978 85.344 58.7058 85.608 58.3298 85.808C57.9538 86.008 57.5178 86.108 57.0218 86.108C56.4618 86.108 55.9498 85.964 55.4858 85.676C55.0218 85.388 54.6538 84.984 54.3818 84.464C54.1178 83.936 53.9858 83.332 53.9858 82.652ZM59.2178 82.676C59.2178 82.268 59.1378 81.92 58.9778 81.632C58.8178 81.336 58.6018 81.112 58.3298 80.96C58.0578 80.8 57.7658 80.72 57.4538 80.72C57.1418 80.72 56.8538 80.796 56.5898 80.948C56.3258 81.1 56.1098 81.324 55.9418 81.62C55.7818 81.908 55.7018 82.252 55.7018 82.652C55.7018 83.052 55.7818 83.404 55.9418 83.708C56.1098 84.004 56.3258 84.232 56.5898 84.392C56.8618 84.552 57.1498 84.632 57.4538 84.632C57.7658 84.632 58.0578 84.556 58.3298 84.404C58.6018 84.244 58.8178 84.02 58.9778 83.732C59.1378 83.436 59.2178 83.084 59.2178 82.676ZM62.1187 82.652C62.1187 81.98 62.2507 81.384 62.5147 80.864C62.7867 80.344 63.1507 79.944 63.6067 79.664C64.0707 79.384 64.5867 79.244 65.1547 79.244C65.6507 79.244 66.0827 79.344 66.4507 79.544C66.8267 79.744 67.1267 79.996 67.3507 80.3V79.352H69.0427V86H67.3507V85.028C67.1347 85.34 66.8347 85.6 66.4507 85.808C66.0747 86.008 65.6387 86.108 65.1427 86.108C64.5827 86.108 64.0707 85.964 63.6067 85.676C63.1507 85.388 62.7867 84.984 62.5147 84.464C62.2507 83.936 62.1187 83.332 62.1187 82.652ZM67.3507 82.676C67.3507 82.268 67.2707 81.92 67.1107 81.632C66.9507 81.336 66.7347 81.112 66.4627 80.96C66.1907 80.8 65.8987 80.72 65.5867 80.72C65.2747 80.72 64.9867 80.796 64.7227 80.948C64.4587 81.1 64.2427 81.324 64.0747 81.62C63.9147 81.908 63.8347 82.252 63.8347 82.652C63.8347 83.052 63.9147 83.404 64.0747 83.708C64.2427 84.004 64.4587 84.232 64.7227 84.392C64.9947 84.552 65.2827 84.632 65.5867 84.632C65.8987 84.632 66.1907 84.556 66.4627 84.404C66.7347 84.244 66.9507 84.02 67.1107 83.732C67.2707 83.436 67.3507 83.084 67.3507 82.676Z" fill="white"/>
<path d="M48.3042 32.4107C48.3042 30.5268 49.7292 29 51.4902 29C53.2497 29 54.6761 30.5268 54.6761 32.4107C54.6761 33.2946 54.4061 34.1018 53.9382 34.7089C53.0427 35.8696 51.7032 37.0393 51.7032 38.5464V39.0536M51.7032 39.0536C52.8128 39.0321 53.9017 39.412 54.8261 40.1429L58.0001 42.6929M51.7032 39.0536C50.603 39.0622 49.5307 39.4679 48.6267 40.2143L37.9828 49.125C36.0748 50.7232 37.1308 54 39.5548 54H64.4471C66.8965 54 67.9345 50.6625 65.9755 49.0893L62.5001 46.3036" stroke="white" stroke-width="1.5" stroke-linecap="round"/>
</svg>
