<svg width="26" height="34" viewBox="0 0 26 34" fill="none" xmlns="http://www.w3.org/2000/svg">
<path d="M19.25 18.6665C19.25 18.335 19.1183 18.017 18.8839 17.7826C18.6495 17.5482 18.3315 17.4165 18 17.4165H8C7.66848 17.4165 7.35054 17.5482 7.11612 17.7826C6.8817 18.017 6.75 18.335 6.75 18.6665C6.75 18.998 6.8817 19.316 7.11612 19.5504C7.35054 19.7848 7.66848 19.9165 8 19.9165H18C18.3315 19.9165 18.6495 19.7848 18.8839 19.5504C19.1183 19.316 19.25 18.998 19.25 18.6665ZM19.25 25.3332C19.25 25.0017 19.1183 24.6837 18.8839 24.4493C18.6495 24.2149 18.3315 24.0832 18 24.0832H8C7.66848 24.0832 7.35054 24.2149 7.11612 24.4493C6.8817 24.6837 6.75 25.0017 6.75 25.3332C6.75 25.6647 6.8817 25.9826 7.11612 26.2171C7.35054 26.4515 7.66848 26.5832 8 26.5832H18C18.3315 26.5832 18.6495 26.4515 18.8839 26.2171C19.1183 25.9826 19.25 25.6647 19.25 25.3332Z" fill="url(#paint0_linear_3875_3630)"/>
<path fill-rule="evenodd" clip-rule="evenodd" d="M4.66666 0.75C3.45109 0.75 2.2853 1.23289 1.42576 2.09243C0.566214 2.95197 0.0833282 4.11776 0.0833282 5.33333V28.6667C0.0833282 29.8822 0.566214 31.048 1.42576 31.9076C2.2853 32.7671 3.45109 33.25 4.66666 33.25H21.3333C22.5489 33.25 23.7147 32.7671 24.5742 31.9076C25.4338 31.048 25.9167 29.8822 25.9167 28.6667V10.28C25.9167 9.645 25.71 9.02833 25.3267 8.52167L20.33 1.90833C20.0581 1.54853 19.7065 1.25667 19.3028 1.05568C18.8991 0.854695 18.4543 0.750061 18.0033 0.75H4.66666ZM2.58333 5.33333C2.58333 4.18333 3.51666 3.25 4.66666 3.25H16.75V10.5783C16.75 11.2683 17.31 11.8283 18 11.8283H23.4167V28.6667C23.4167 29.8167 22.4833 30.75 21.3333 30.75H4.66666C3.51666 30.75 2.58333 29.8167 2.58333 28.6667V5.33333Z" fill="url(#paint1_linear_3875_3630)"/>
<defs>
<linearGradient id="paint0_linear_3875_3630" x1="13" y1="17.4165" x2="13" y2="26.5832" gradientUnits="userSpaceOnUse">
<stop stop-color="#5720B5"/>
<stop offset="1" stop-color="#260E4F"/>
</linearGradient>
<linearGradient id="paint1_linear_3875_3630" x1="13" y1="0.75" x2="13" y2="33.25" gradientUnits="userSpaceOnUse">
<stop stop-color="#5720B5"/>
<stop offset="1" stop-color="#260E4F"/>
</linearGradient>
</defs>
</svg>
