<svg width="104" height="98" viewBox="0 0 104 98" fill="none" xmlns="http://www.w3.org/2000/svg">
<path d="M15.7144 86L13.8664 82.736H13.0744V86H11.3944V77.624H14.5384C15.1864 77.624 15.7384 77.74 16.1944 77.972C16.6504 78.196 16.9904 78.504 17.2144 78.896C17.4464 79.28 17.5624 79.712 17.5624 80.192C17.5624 80.744 17.4024 81.244 17.0824 81.692C16.7624 82.132 16.2864 82.436 15.6544 82.604L17.6584 86H15.7144ZM13.0744 81.476H14.4784C14.9344 81.476 15.2744 81.368 15.4984 81.152C15.7224 80.928 15.8344 80.62 15.8344 80.228C15.8344 79.844 15.7224 79.548 15.4984 79.34C15.2744 79.124 14.9344 79.016 14.4784 79.016H13.0744V81.476ZM25.2619 82.532C25.2619 82.772 25.2459 82.988 25.2139 83.18H20.3539C20.3939 83.66 20.5619 84.036 20.8579 84.308C21.1539 84.58 21.5179 84.716 21.9499 84.716C22.5739 84.716 23.0179 84.448 23.2819 83.912H25.0939C24.9019 84.552 24.5339 85.08 23.9899 85.496C23.4459 85.904 22.7779 86.108 21.9859 86.108C21.3459 86.108 20.7699 85.968 20.2579 85.688C19.7539 85.4 19.3579 84.996 19.0699 84.476C18.7899 83.956 18.6499 83.356 18.6499 82.676C18.6499 81.988 18.7899 81.384 19.0699 80.864C19.3499 80.344 19.7419 79.944 20.2459 79.664C20.7499 79.384 21.3299 79.244 21.9859 79.244C22.6179 79.244 23.1819 79.38 23.6779 79.652C24.1819 79.924 24.5699 80.312 24.8419 80.816C25.1219 81.312 25.2619 81.884 25.2619 82.532ZM23.5219 82.052C23.5139 81.62 23.3579 81.276 23.0539 81.02C22.7499 80.756 22.3779 80.624 21.9379 80.624C21.5219 80.624 21.1699 80.752 20.8819 81.008C20.6019 81.256 20.4299 81.604 20.3659 82.052H23.5219ZM29.0322 86.108C28.4882 86.108 28.0002 86.012 27.5682 85.82C27.1362 85.62 26.7922 85.352 26.5362 85.016C26.2882 84.68 26.1522 84.308 26.1282 83.9H27.8202C27.8522 84.156 27.9762 84.368 28.1922 84.536C28.4162 84.704 28.6922 84.788 29.0202 84.788C29.3402 84.788 29.5882 84.724 29.7642 84.596C29.9482 84.468 30.0402 84.304 30.0402 84.104C30.0402 83.888 29.9282 83.728 29.7042 83.624C29.4882 83.512 29.1402 83.392 28.6602 83.264C28.1642 83.144 27.7562 83.02 27.4362 82.892C27.1242 82.764 26.8522 82.568 26.6202 82.304C26.3962 82.04 26.2842 81.684 26.2842 81.236C26.2842 80.868 26.3882 80.532 26.5962 80.228C26.8122 79.924 27.1162 79.684 27.5082 79.508C27.9082 79.332 28.3762 79.244 28.9122 79.244C29.7042 79.244 30.3362 79.444 30.8082 79.844C31.2802 80.236 31.5402 80.768 31.5882 81.44H29.9802C29.9562 81.176 29.8442 80.968 29.6442 80.816C29.4522 80.656 29.1922 80.576 28.8642 80.576C28.5602 80.576 28.3242 80.632 28.1562 80.744C27.9962 80.856 27.9162 81.012 27.9162 81.212C27.9162 81.436 28.0282 81.608 28.2522 81.728C28.4762 81.84 28.8242 81.956 29.2962 82.076C29.7762 82.196 30.1722 82.32 30.4842 82.448C30.7962 82.576 31.0642 82.776 31.2882 83.048C31.5202 83.312 31.6402 83.664 31.6482 84.104C31.6482 84.488 31.5402 84.832 31.3242 85.136C31.1162 85.44 30.8122 85.68 30.4122 85.856C30.0202 86.024 29.5602 86.108 29.0322 86.108ZM34.9832 80.732V83.948C34.9832 84.172 35.0352 84.336 35.1392 84.44C35.2512 84.536 35.4352 84.584 35.6912 84.584H36.4712V86H35.4152C33.9992 86 33.2912 85.312 33.2912 83.936V80.732H32.4992V79.352H33.2912V77.708H34.9832V79.352H36.4712V80.732H34.9832ZM37.2476 82.652C37.2476 81.98 37.3796 81.384 37.6436 80.864C37.9156 80.344 38.2796 79.944 38.7356 79.664C39.1996 79.384 39.7156 79.244 40.2836 79.244C40.7796 79.244 41.2116 79.344 41.5796 79.544C41.9556 79.744 42.2556 79.996 42.4796 80.3V79.352H44.1716V86H42.4796V85.028C42.2636 85.34 41.9636 85.6 41.5796 85.808C41.2036 86.008 40.7676 86.108 40.2716 86.108C39.7116 86.108 39.1996 85.964 38.7356 85.676C38.2796 85.388 37.9156 84.984 37.6436 84.464C37.3796 83.936 37.2476 83.332 37.2476 82.652ZM42.4796 82.676C42.4796 82.268 42.3996 81.92 42.2396 81.632C42.0796 81.336 41.8636 81.112 41.5916 80.96C41.3196 80.8 41.0276 80.72 40.7156 80.72C40.4036 80.72 40.1156 80.796 39.8516 80.948C39.5876 81.1 39.3716 81.324 39.2036 81.62C39.0436 81.908 38.9636 82.252 38.9636 82.652C38.9636 83.052 39.0436 83.404 39.2036 83.708C39.3716 84.004 39.5876 84.232 39.8516 84.392C40.1236 84.552 40.4116 84.632 40.7156 84.632C41.0276 84.632 41.3196 84.556 41.5916 84.404C41.8636 84.244 42.0796 84.02 42.2396 83.732C42.3996 83.436 42.4796 83.084 42.4796 82.676ZM52.0884 79.352V86H50.3964V85.16C50.1804 85.448 49.8964 85.676 49.5444 85.844C49.2004 86.004 48.8244 86.084 48.4164 86.084C47.8964 86.084 47.4364 85.976 47.0364 85.76C46.6364 85.536 46.3204 85.212 46.0884 84.788C45.8644 84.356 45.7524 83.844 45.7524 83.252V79.352H47.4324V83.012C47.4324 83.54 47.5644 83.948 47.8284 84.236C48.0924 84.516 48.4524 84.656 48.9084 84.656C49.3724 84.656 49.7364 84.516 50.0004 84.236C50.2644 83.948 50.3964 83.54 50.3964 83.012V79.352H52.0884ZM55.426 80.384C55.642 80.032 55.922 79.756 56.266 79.556C56.618 79.356 57.018 79.256 57.466 79.256V81.02H57.022C56.494 81.02 56.094 81.144 55.822 81.392C55.558 81.64 55.426 82.072 55.426 82.688V86H53.746V79.352H55.426V80.384ZM58.1655 82.652C58.1655 81.98 58.2975 81.384 58.5615 80.864C58.8335 80.344 59.1975 79.944 59.6535 79.664C60.1175 79.384 60.6335 79.244 61.2015 79.244C61.6975 79.244 62.1295 79.344 62.4975 79.544C62.8735 79.744 63.1735 79.996 63.3975 80.3V79.352H65.0895V86H63.3975V85.028C63.1815 85.34 62.8815 85.6 62.4975 85.808C62.1215 86.008 61.6855 86.108 61.1895 86.108C60.6295 86.108 60.1175 85.964 59.6535 85.676C59.1975 85.388 58.8335 84.984 58.5615 84.464C58.2975 83.936 58.1655 83.332 58.1655 82.652ZM63.3975 82.676C63.3975 82.268 63.3175 81.92 63.1575 81.632C62.9975 81.336 62.7815 81.112 62.5095 80.96C62.2375 80.8 61.9455 80.72 61.6335 80.72C61.3215 80.72 61.0335 80.796 60.7695 80.948C60.5055 81.1 60.2895 81.324 60.1215 81.62C59.9615 81.908 59.8815 82.252 59.8815 82.652C59.8815 83.052 59.9615 83.404 60.1215 83.708C60.2895 84.004 60.5055 84.232 60.7695 84.392C61.0415 84.552 61.3295 84.632 61.6335 84.632C61.9455 84.632 62.2375 84.556 62.5095 84.404C62.7815 84.244 62.9975 84.02 63.1575 83.732C63.3175 83.436 63.3975 83.084 63.3975 82.676ZM70.4143 79.256C71.2063 79.256 71.8463 79.508 72.3343 80.012C72.8223 80.508 73.0663 81.204 73.0663 82.1V86H71.3863V82.328C71.3863 81.8 71.2543 81.396 70.9903 81.116C70.7263 80.828 70.3663 80.684 69.9103 80.684C69.4463 80.684 69.0783 80.828 68.8063 81.116C68.5423 81.396 68.4103 81.8 68.4103 82.328V86H66.7303V79.352H68.4103V80.18C68.6343 79.892 68.9183 79.668 69.2623 79.508C69.6143 79.34 69.9983 79.256 70.4143 79.256ZM76.6199 80.732V83.948C76.6199 84.172 76.6719 84.336 76.7759 84.44C76.8879 84.536 77.0719 84.584 77.3279 84.584H78.1079V86H77.0519C75.6359 86 74.9279 85.312 74.9279 83.936V80.732H74.1359V79.352H74.9279V77.708H76.6199V79.352H78.1079V80.732H76.6199ZM85.4963 82.532C85.4963 82.772 85.4803 82.988 85.4483 83.18H80.5883C80.6283 83.66 80.7963 84.036 81.0923 84.308C81.3883 84.58 81.7523 84.716 82.1843 84.716C82.8083 84.716 83.2523 84.448 83.5163 83.912H85.3283C85.1363 84.552 84.7683 85.08 84.2243 85.496C83.6803 85.904 83.0123 86.108 82.2203 86.108C81.5803 86.108 81.0043 85.968 80.4923 85.688C79.9883 85.4 79.5923 84.996 79.3043 84.476C79.0243 83.956 78.8843 83.356 78.8843 82.676C78.8843 81.988 79.0243 81.384 79.3043 80.864C79.5843 80.344 79.9763 79.944 80.4803 79.664C80.9843 79.384 81.5643 79.244 82.2203 79.244C82.8523 79.244 83.4163 79.38 83.9123 79.652C84.4163 79.924 84.8043 80.312 85.0763 80.816C85.3563 81.312 85.4963 81.884 85.4963 82.532ZM83.7563 82.052C83.7483 81.62 83.5923 81.276 83.2883 81.02C82.9843 80.756 82.6123 80.624 82.1723 80.624C81.7563 80.624 81.4043 80.752 81.1163 81.008C80.8363 81.256 80.6643 81.604 80.6003 82.052H83.7563ZM89.2665 86.108C88.7225 86.108 88.2345 86.012 87.8025 85.82C87.3705 85.62 87.0265 85.352 86.7705 85.016C86.5225 84.68 86.3865 84.308 86.3625 83.9H88.0545C88.0865 84.156 88.2105 84.368 88.4265 84.536C88.6505 84.704 88.9265 84.788 89.2545 84.788C89.5745 84.788 89.8225 84.724 89.9985 84.596C90.1825 84.468 90.2745 84.304 90.2745 84.104C90.2745 83.888 90.1625 83.728 89.9385 83.624C89.7225 83.512 89.3745 83.392 88.8945 83.264C88.3985 83.144 87.9905 83.02 87.6705 82.892C87.3585 82.764 87.0865 82.568 86.8545 82.304C86.6305 82.04 86.5185 81.684 86.5185 81.236C86.5185 80.868 86.6225 80.532 86.8305 80.228C87.0465 79.924 87.3505 79.684 87.7425 79.508C88.1425 79.332 88.6105 79.244 89.1465 79.244C89.9385 79.244 90.5705 79.444 91.0425 79.844C91.5145 80.236 91.7745 80.768 91.8225 81.44H90.2145C90.1905 81.176 90.0785 80.968 89.8785 80.816C89.6865 80.656 89.4265 80.576 89.0985 80.576C88.7945 80.576 88.5585 80.632 88.3905 80.744C88.2305 80.856 88.1505 81.012 88.1505 81.212C88.1505 81.436 88.2625 81.608 88.4865 81.728C88.7105 81.84 89.0585 81.956 89.5305 82.076C90.0105 82.196 90.4065 82.32 90.7185 82.448C91.0305 82.576 91.2985 82.776 91.5225 83.048C91.7545 83.312 91.8745 83.664 91.8825 84.104C91.8825 84.488 91.7745 84.832 91.5585 85.136C91.3505 85.44 91.0465 85.68 90.6465 85.856C90.2545 86.024 89.7945 86.108 89.2665 86.108Z" fill="white"/>
<path d="M37.9538 38.7523V38.7309C37.9537 36.6111 38.5481 34.5388 39.6619 32.7754C40.7757 31.0121 42.359 29.6366 44.2121 28.8227C46.0652 28.0087 48.105 27.7926 50.0742 28.2018C52.0434 28.6109 53.8537 29.6269 55.2769 31.1216C56.3966 30.5379 57.6473 30.2925 58.8907 30.4124C60.1342 30.5324 61.3221 31.0132 62.3231 31.8015C63.3242 32.5899 64.0994 33.6552 64.5631 34.8797C65.0269 36.1042 65.1611 37.4404 64.951 38.7404C65.2599 38.7707 65.5596 38.8679 65.8314 39.026C66.1031 39.1841 66.3412 39.3996 66.5306 39.6592C66.7199 39.9187 66.8567 40.2167 66.9321 40.5346C67.0076 40.8524 67.0203 41.1833 66.9693 41.5066C65.9489 47.9903 63.4248 52.0942 59.4016 53.8206V55.4231C59.4016 56.3718 59.0448 57.2816 58.4097 57.9524C57.7746 58.6232 56.9133 59 56.0151 59H46.9844C46.0863 59 45.2249 58.6232 44.5898 57.9524C43.9547 57.2816 43.5979 56.3718 43.5979 55.4231V53.8206C39.5748 52.0942 37.0507 47.9903 36.0302 41.5066C35.981 41.1919 35.992 40.87 36.0626 40.5599C36.1332 40.2498 36.262 39.9578 36.4414 39.7013C36.6207 39.4447 36.847 39.2287 37.1068 39.0661C37.3665 38.9035 37.6546 38.7977 37.9538 38.7547V38.7523ZM40.2114 38.7309H42.4691C42.4691 37.1498 43.0638 35.6334 44.1222 34.5154C45.1807 33.3975 46.6163 32.7694 48.1133 32.7694C49.6102 32.7694 51.0458 33.3975 52.1043 34.5154C53.1628 35.6334 53.7574 37.1498 53.7574 38.7309H56.0151C56.0151 36.5173 55.1826 34.3945 53.7007 32.8293C52.2188 31.2641 50.209 30.3848 48.1133 30.3848C46.0176 30.3848 44.0077 31.2641 42.5258 32.8293C41.0439 34.3945 40.2114 36.5173 40.2114 38.7309ZM44.7268 38.7309H51.4998C51.4998 37.7822 51.143 36.8724 50.5079 36.2016C49.8728 35.5308 49.0114 35.154 48.1133 35.154C47.2151 35.154 46.3537 35.5308 45.7187 36.2016C45.0836 36.8724 44.7268 37.7822 44.7268 38.7309ZM60.2279 38.7309H62.6459C62.8163 38.0262 62.8322 37.2896 62.6923 36.5775C62.5525 35.8653 62.2605 35.1962 61.8388 34.6212C61.417 34.0463 60.8765 33.5806 60.2586 33.2597C59.6406 32.9387 58.9614 32.7711 58.2728 32.7694C57.7309 32.7694 57.2162 32.8695 56.7376 33.0531C57.1372 33.7304 57.4668 34.46 57.7197 35.2255C58.1497 35.1129 58.6015 35.1361 59.0192 35.2922C59.4368 35.4484 59.8018 35.7306 60.069 36.1039C60.3361 36.4773 60.4936 36.9252 60.5218 37.3922C60.5501 37.8592 60.4479 38.3247 60.2279 38.7309ZM57.144 54.2308H45.8556V55.4231C45.8556 55.7393 45.9745 56.0426 46.1862 56.2662C46.3979 56.4898 46.6851 56.6154 46.9844 56.6154H56.0151C56.3145 56.6154 56.6016 56.4898 56.8133 56.2662C57.025 56.0426 57.144 55.7393 57.144 55.4231V54.2308ZM45.0609 51.8462H57.9387C61.5193 50.63 63.786 47.1914 64.7433 41.1155H38.2563C39.2135 47.1914 41.4802 50.63 45.0609 51.8462Z" fill="white"/>
</svg>
