<svg width="104" height="98" viewBox="0 0 104 98" fill="none" xmlns="http://www.w3.org/2000/svg">
<path d="M33.2027 86L31.3547 82.736H30.5627V86H28.8827V77.624H32.0267C32.6747 77.624 33.2267 77.74 33.6827 77.972C34.1387 78.196 34.4787 78.504 34.7027 78.896C34.9347 79.28 35.0507 79.712 35.0507 80.192C35.0507 80.744 34.8907 81.244 34.5707 81.692C34.2507 82.132 33.7747 82.436 33.1427 82.604L35.1467 86H33.2027ZM30.5627 81.476H31.9667C32.4227 81.476 32.7627 81.368 32.9867 81.152C33.2107 80.928 33.3227 80.62 33.3227 80.228C33.3227 79.844 33.2107 79.548 32.9867 79.34C32.7627 79.124 32.4227 79.016 31.9667 79.016H30.5627V81.476ZM42.7502 82.532C42.7502 82.772 42.7342 82.988 42.7022 83.18H37.8422C37.8822 83.66 38.0502 84.036 38.3462 84.308C38.6422 84.58 39.0062 84.716 39.4382 84.716C40.0622 84.716 40.5062 84.448 40.7702 83.912H42.5822C42.3902 84.552 42.0222 85.08 41.4782 85.496C40.9342 85.904 40.2662 86.108 39.4742 86.108C38.8342 86.108 38.2582 85.968 37.7462 85.688C37.2422 85.4 36.8462 84.996 36.5582 84.476C36.2782 83.956 36.1382 83.356 36.1382 82.676C36.1382 81.988 36.2782 81.384 36.5582 80.864C36.8382 80.344 37.2302 79.944 37.7342 79.664C38.2382 79.384 38.8182 79.244 39.4742 79.244C40.1062 79.244 40.6702 79.38 41.1662 79.652C41.6702 79.924 42.0582 80.312 42.3302 80.816C42.6102 81.312 42.7502 81.884 42.7502 82.532ZM41.0102 82.052C41.0022 81.62 40.8462 81.276 40.5422 81.02C40.2382 80.756 39.8662 80.624 39.4262 80.624C39.0102 80.624 38.6582 80.752 38.3702 81.008C38.0902 81.256 37.9182 81.604 37.8542 82.052H41.0102ZM46.5804 79.244C47.0764 79.244 47.5124 79.344 47.8884 79.544C48.2644 79.736 48.5604 79.988 48.7764 80.3V79.352H50.4684V86.048C50.4684 86.664 50.3444 87.212 50.0964 87.692C49.8484 88.18 49.4764 88.564 48.9804 88.844C48.4844 89.132 47.8844 89.276 47.1804 89.276C46.2364 89.276 45.4604 89.056 44.8524 88.616C44.2524 88.176 43.9124 87.576 43.8324 86.816H45.5004C45.5884 87.12 45.7764 87.36 46.0644 87.536C46.3604 87.72 46.7164 87.812 47.1324 87.812C47.6204 87.812 48.0164 87.664 48.3204 87.368C48.6244 87.08 48.7764 86.64 48.7764 86.048V85.016C48.5604 85.328 48.2604 85.588 47.8764 85.796C47.5004 86.004 47.0684 86.108 46.5804 86.108C46.0204 86.108 45.5084 85.964 45.0444 85.676C44.5804 85.388 44.2124 84.984 43.9404 84.464C43.6764 83.936 43.5444 83.332 43.5444 82.652C43.5444 81.98 43.6764 81.384 43.9404 80.864C44.2124 80.344 44.5764 79.944 45.0324 79.664C45.4964 79.384 46.0124 79.244 46.5804 79.244ZM48.7764 82.676C48.7764 82.268 48.6964 81.92 48.5364 81.632C48.3764 81.336 48.1604 81.112 47.8884 80.96C47.6164 80.8 47.3244 80.72 47.0124 80.72C46.7004 80.72 46.4124 80.796 46.1484 80.948C45.8844 81.1 45.6684 81.324 45.5004 81.62C45.3404 81.908 45.2604 82.252 45.2604 82.652C45.2604 83.052 45.3404 83.404 45.5004 83.708C45.6684 84.004 45.8844 84.232 46.1484 84.392C46.4204 84.552 46.7084 84.632 47.0124 84.632C47.3244 84.632 47.6164 84.556 47.8884 84.404C48.1604 84.244 48.3764 84.02 48.5364 83.732C48.6964 83.436 48.7764 83.084 48.7764 82.676ZM51.6772 82.652C51.6772 81.98 51.8092 81.384 52.0732 80.864C52.3453 80.344 52.7093 79.944 53.1653 79.664C53.6293 79.384 54.1453 79.244 54.7133 79.244C55.2093 79.244 55.6413 79.344 56.0093 79.544C56.3853 79.744 56.6853 79.996 56.9093 80.3V79.352H58.6013V86H56.9093V85.028C56.6933 85.34 56.3933 85.6 56.0093 85.808C55.6333 86.008 55.1973 86.108 54.7013 86.108C54.1413 86.108 53.6293 85.964 53.1653 85.676C52.7093 85.388 52.3453 84.984 52.0732 84.464C51.8092 83.936 51.6772 83.332 51.6772 82.652ZM56.9093 82.676C56.9093 82.268 56.8293 81.92 56.6693 81.632C56.5093 81.336 56.2933 81.112 56.0213 80.96C55.7493 80.8 55.4573 80.72 55.1453 80.72C54.8333 80.72 54.5453 80.796 54.2812 80.948C54.0173 81.1 53.8013 81.324 53.6333 81.62C53.4733 81.908 53.3933 82.252 53.3933 82.652C53.3933 83.052 53.4733 83.404 53.6333 83.708C53.8013 84.004 54.0173 84.232 54.2812 84.392C54.5533 84.552 54.8413 84.632 55.1453 84.632C55.4573 84.632 55.7493 84.556 56.0213 84.404C56.2933 84.244 56.5093 84.02 56.6693 83.732C56.8293 83.436 56.9093 83.084 56.9093 82.676ZM61.9221 77.12V86H60.2421V77.12H61.9221ZM66.5339 86.108C65.8939 86.108 65.3179 85.968 64.8059 85.688C64.2939 85.4 63.8899 84.996 63.5939 84.476C63.3059 83.956 63.1619 83.356 63.1619 82.676C63.1619 81.996 63.3099 81.396 63.6059 80.876C63.9099 80.356 64.3219 79.956 64.8419 79.676C65.3619 79.388 65.9419 79.244 66.5819 79.244C67.2219 79.244 67.8019 79.388 68.3219 79.676C68.8419 79.956 69.2499 80.356 69.5459 80.876C69.8499 81.396 70.0019 81.996 70.0019 82.676C70.0019 83.356 69.8459 83.956 69.5339 84.476C69.2299 84.996 68.8139 85.4 68.2859 85.688C67.7659 85.968 67.1819 86.108 66.5339 86.108ZM66.5339 84.644C66.8379 84.644 67.1219 84.572 67.3859 84.428C67.6579 84.276 67.8739 84.052 68.0339 83.756C68.1939 83.46 68.2739 83.1 68.2739 82.676C68.2739 82.044 68.1059 81.56 67.7699 81.224C67.4419 80.88 67.0379 80.708 66.5579 80.708C66.0779 80.708 65.6739 80.88 65.3459 81.224C65.0259 81.56 64.8659 82.044 64.8659 82.676C64.8659 83.308 65.0219 83.796 65.3339 84.14C65.6539 84.476 66.0539 84.644 66.5339 84.644ZM73.7783 86.108C73.2343 86.108 72.7463 86.012 72.3143 85.82C71.8823 85.62 71.5383 85.352 71.2823 85.016C71.0343 84.68 70.8983 84.308 70.8743 83.9H72.5663C72.5983 84.156 72.7223 84.368 72.9383 84.536C73.1623 84.704 73.4383 84.788 73.7663 84.788C74.0863 84.788 74.3343 84.724 74.5103 84.596C74.6943 84.468 74.7863 84.304 74.7863 84.104C74.7863 83.888 74.6743 83.728 74.4503 83.624C74.2343 83.512 73.8863 83.392 73.4062 83.264C72.9103 83.144 72.5023 83.02 72.1823 82.892C71.8703 82.764 71.5983 82.568 71.3663 82.304C71.1423 82.04 71.0303 81.684 71.0303 81.236C71.0303 80.868 71.1343 80.532 71.3423 80.228C71.5583 79.924 71.8623 79.684 72.2543 79.508C72.6543 79.332 73.1223 79.244 73.6583 79.244C74.4503 79.244 75.0823 79.444 75.5543 79.844C76.0263 80.236 76.2863 80.768 76.3343 81.44H74.7263C74.7023 81.176 74.5903 80.968 74.3903 80.816C74.1983 80.656 73.9383 80.576 73.6103 80.576C73.3063 80.576 73.0703 80.632 72.9023 80.744C72.7423 80.856 72.6623 81.012 72.6623 81.212C72.6623 81.436 72.7743 81.608 72.9983 81.728C73.2223 81.84 73.5703 81.956 74.0423 82.076C74.5223 82.196 74.9183 82.32 75.2303 82.448C75.5423 82.576 75.8103 82.776 76.0343 83.048C76.2663 83.312 76.3863 83.664 76.3943 84.104C76.3943 84.488 76.2863 84.832 76.0703 85.136C75.8623 85.44 75.5583 85.68 75.1583 85.856C74.7663 86.024 74.3063 86.108 73.7783 86.108Z" fill="white"/>
<path d="M41.3333 41V46.3333C41.3333 50.7333 41.3333 52.9333 42.7 54.3C44.0667 55.6667 46.2667 55.6667 50.6667 55.6667H53.3333C57.7333 55.6667 59.9333 55.6667 61.3 54.3C62.6667 52.9333 62.6667 50.7333 62.6667 46.3333V41M52 34.1427C52 32.7787 51.4582 31.4707 50.4937 30.5063C49.5293 29.5418 48.2213 29 46.8573 29H46.3813C45.0667 29 44 30.0653 44 31.3813C44 32.5179 44.4515 33.6079 45.2551 34.4115C46.0588 35.2152 47.1488 35.6667 48.2853 35.6667H52M52 34.1427V35.6667M52 34.1427C52 32.7787 52.5418 31.4707 53.5063 30.5063C54.4707 29.5418 55.7787 29 57.1427 29H57.6187C58.9333 29 60 30.0653 60 31.3813C60 31.9441 59.8892 32.5013 59.6738 33.0213C59.4584 33.5412 59.1428 34.0136 58.7449 34.4115C58.3469 34.8095 57.8745 35.1251 57.3546 35.3405C56.8347 35.5558 56.2774 35.6667 55.7147 35.6667H52M52 41V55.6667M40 38.3333C40 37.336 40 36.8373 40.268 36.4667C40.4581 36.212 40.71 36.0101 41 35.88C41.464 35.6667 42.0867 35.6667 43.3333 35.6667H60.6667C61.9133 35.6667 62.536 35.6667 63 35.88C63.304 36.0213 63.556 36.224 63.732 36.4667C64 36.8373 64 37.336 64 38.3333C64 39.3307 64 39.828 63.732 40.2C63.5419 40.4547 63.29 40.6566 63 40.7867C62.536 41 61.9133 41 60.6667 41H43.3333C42.0867 41 41.464 41 41 40.7867C40.71 40.6566 40.4581 40.4547 40.268 40.2C40 39.828 40 39.3307 40 38.3333Z" stroke="white" stroke-width="1.5" stroke-linecap="round" stroke-linejoin="round"/>
</svg>
