<svg width="104" height="98" viewBox="0 0 104 98" fill="none" xmlns="http://www.w3.org/2000/svg">
<path d="M14.5235 81.8C14.5235 80.976 14.7075 80.24 15.0755 79.592C15.4515 78.936 15.9595 78.428 16.5995 78.068C17.2475 77.7 17.9715 77.516 18.7715 77.516C19.7075 77.516 20.5275 77.756 21.2315 78.236C21.9355 78.716 22.4275 79.38 22.7075 80.228H20.7755C20.5835 79.828 20.3115 79.528 19.9595 79.328C19.6155 79.128 19.2155 79.028 18.7595 79.028C18.2715 79.028 17.8355 79.144 17.4515 79.376C17.0755 79.6 16.7795 79.92 16.5635 80.336C16.3555 80.752 16.2515 81.24 16.2515 81.8C16.2515 82.352 16.3555 82.84 16.5635 83.264C16.7795 83.68 17.0755 84.004 17.4515 84.236C17.8355 84.46 18.2715 84.572 18.7595 84.572C19.2155 84.572 19.6155 84.472 19.9595 84.272C20.3115 84.064 20.5835 83.76 20.7755 83.36H22.7075C22.4275 84.216 21.9355 84.884 21.2315 85.364C20.5355 85.836 19.7155 86.072 18.7715 86.072C17.9715 86.072 17.2475 85.892 16.5995 85.532C15.9595 85.164 15.4515 84.656 15.0755 84.008C14.7075 83.36 14.5235 82.624 14.5235 81.8ZM27.0945 86.108C26.4545 86.108 25.8785 85.968 25.3665 85.688C24.8545 85.4 24.4505 84.996 24.1545 84.476C23.8665 83.956 23.7225 83.356 23.7225 82.676C23.7225 81.996 23.8705 81.396 24.1665 80.876C24.4705 80.356 24.8825 79.956 25.4025 79.676C25.9225 79.388 26.5025 79.244 27.1425 79.244C27.7825 79.244 28.3625 79.388 28.8825 79.676C29.4025 79.956 29.8105 80.356 30.1065 80.876C30.4105 81.396 30.5625 81.996 30.5625 82.676C30.5625 83.356 30.4065 83.956 30.0945 84.476C29.7905 84.996 29.3745 85.4 28.8465 85.688C28.3265 85.968 27.7425 86.108 27.0945 86.108ZM27.0945 84.644C27.3985 84.644 27.6825 84.572 27.9465 84.428C28.2185 84.276 28.4345 84.052 28.5945 83.756C28.7545 83.46 28.8345 83.1 28.8345 82.676C28.8345 82.044 28.6665 81.56 28.3305 81.224C28.0025 80.88 27.5985 80.708 27.1185 80.708C26.6385 80.708 26.2345 80.88 25.9065 81.224C25.5865 81.56 25.4265 82.044 25.4265 82.676C25.4265 83.308 25.5825 83.796 25.8945 84.14C26.2145 84.476 26.6145 84.644 27.0945 84.644ZM40.0508 79.256C40.8668 79.256 41.5228 79.508 42.0188 80.012C42.5228 80.508 42.7748 81.204 42.7748 82.1V86H41.0948V82.328C41.0948 81.808 40.9628 81.412 40.6988 81.14C40.4348 80.86 40.0748 80.72 39.6188 80.72C39.1628 80.72 38.7988 80.86 38.5268 81.14C38.2628 81.412 38.1308 81.808 38.1308 82.328V86H36.4508V82.328C36.4508 81.808 36.3188 81.412 36.0548 81.14C35.7908 80.86 35.4308 80.72 34.9748 80.72C34.5108 80.72 34.1428 80.86 33.8708 81.14C33.6068 81.412 33.4748 81.808 33.4748 82.328V86H31.7948V79.352H33.4748V80.156C33.6908 79.876 33.9668 79.656 34.3028 79.496C34.6468 79.336 35.0228 79.256 35.4308 79.256C35.9508 79.256 36.4148 79.368 36.8228 79.592C37.2308 79.808 37.5468 80.12 37.7708 80.528C37.9868 80.144 38.2988 79.836 38.7068 79.604C39.1228 79.372 39.5708 79.256 40.0508 79.256ZM50.549 82.532C50.549 82.772 50.533 82.988 50.501 83.18H45.641C45.681 83.66 45.849 84.036 46.145 84.308C46.441 84.58 46.805 84.716 47.237 84.716C47.861 84.716 48.305 84.448 48.569 83.912H50.381C50.189 84.552 49.821 85.08 49.277 85.496C48.733 85.904 48.065 86.108 47.273 86.108C46.633 86.108 46.057 85.968 45.545 85.688C45.041 85.4 44.645 84.996 44.357 84.476C44.077 83.956 43.937 83.356 43.937 82.676C43.937 81.988 44.077 81.384 44.357 80.864C44.637 80.344 45.029 79.944 45.533 79.664C46.037 79.384 46.617 79.244 47.273 79.244C47.905 79.244 48.469 79.38 48.965 79.652C49.469 79.924 49.857 80.312 50.129 80.816C50.409 81.312 50.549 81.884 50.549 82.532ZM48.809 82.052C48.801 81.62 48.645 81.276 48.341 81.02C48.037 80.756 47.665 80.624 47.225 80.624C46.809 80.624 46.457 80.752 46.169 81.008C45.889 81.256 45.717 81.604 45.653 82.052H48.809ZM54.3193 86.108C53.7753 86.108 53.2873 86.012 52.8553 85.82C52.4233 85.62 52.0793 85.352 51.8233 85.016C51.5753 84.68 51.4393 84.308 51.4153 83.9H53.1073C53.1393 84.156 53.2633 84.368 53.4793 84.536C53.7033 84.704 53.9793 84.788 54.3073 84.788C54.6273 84.788 54.8753 84.724 55.0513 84.596C55.2353 84.468 55.3273 84.304 55.3273 84.104C55.3273 83.888 55.2153 83.728 54.9913 83.624C54.7753 83.512 54.4273 83.392 53.9473 83.264C53.4513 83.144 53.0433 83.02 52.7233 82.892C52.4113 82.764 52.1393 82.568 51.9073 82.304C51.6833 82.04 51.5713 81.684 51.5713 81.236C51.5713 80.868 51.6753 80.532 51.8833 80.228C52.0993 79.924 52.4033 79.684 52.7953 79.508C53.1953 79.332 53.6633 79.244 54.1993 79.244C54.9913 79.244 55.6233 79.444 56.0953 79.844C56.5673 80.236 56.8273 80.768 56.8753 81.44H55.2673C55.2433 81.176 55.1313 80.968 54.9313 80.816C54.7393 80.656 54.4793 80.576 54.1513 80.576C53.8473 80.576 53.6113 80.632 53.4433 80.744C53.2833 80.856 53.2033 81.012 53.2033 81.212C53.2033 81.436 53.3153 81.608 53.5393 81.728C53.7633 81.84 54.1113 81.956 54.5833 82.076C55.0633 82.196 55.4593 82.32 55.7713 82.448C56.0833 82.576 56.3513 82.776 56.5753 83.048C56.8073 83.312 56.9273 83.664 56.9353 84.104C56.9353 84.488 56.8273 84.832 56.6113 85.136C56.4033 85.44 56.0993 85.68 55.6993 85.856C55.3073 86.024 54.8473 86.108 54.3193 86.108ZM60.2703 80.732V83.948C60.2703 84.172 60.3223 84.336 60.4263 84.44C60.5383 84.536 60.7223 84.584 60.9783 84.584H61.7583V86H60.7023C59.2863 86 58.5783 85.312 58.5783 83.936V80.732H57.7863V79.352H58.5783V77.708H60.2703V79.352H61.7583V80.732H60.2703ZM63.8187 78.56C63.5227 78.56 63.2747 78.468 63.0747 78.284C62.8827 78.092 62.7867 77.856 62.7867 77.576C62.7867 77.296 62.8827 77.064 63.0747 76.88C63.2747 76.688 63.5227 76.592 63.8187 76.592C64.1147 76.592 64.3587 76.688 64.5507 76.88C64.7507 77.064 64.8507 77.296 64.8507 77.576C64.8507 77.856 64.7507 78.092 64.5507 78.284C64.3587 78.468 64.1147 78.56 63.8187 78.56ZM64.6467 79.352V86H62.9667V79.352H64.6467ZM67.9865 80.324C68.2025 80.004 68.4985 79.744 68.8745 79.544C69.2585 79.344 69.6945 79.244 70.1825 79.244C70.7505 79.244 71.2625 79.384 71.7185 79.664C72.1825 79.944 72.5465 80.344 72.8105 80.864C73.0825 81.376 73.2185 81.972 73.2185 82.652C73.2185 83.332 73.0825 83.936 72.8105 84.464C72.5465 84.984 72.1825 85.388 71.7185 85.676C71.2625 85.964 70.7505 86.108 70.1825 86.108C69.6865 86.108 69.2505 86.012 68.8745 85.82C68.5065 85.62 68.2105 85.364 67.9865 85.052V86H66.3065V77.12H67.9865V80.324ZM71.5025 82.652C71.5025 82.252 71.4185 81.908 71.2505 81.62C71.0905 81.324 70.8745 81.1 70.6025 80.948C70.3385 80.796 70.0505 80.72 69.7385 80.72C69.4345 80.72 69.1465 80.8 68.8745 80.96C68.6105 81.112 68.3945 81.336 68.2265 81.632C68.0665 81.928 67.9865 82.276 67.9865 82.676C67.9865 83.076 68.0665 83.424 68.2265 83.72C68.3945 84.016 68.6105 84.244 68.8745 84.404C69.1465 84.556 69.4345 84.632 69.7385 84.632C70.0505 84.632 70.3385 84.552 70.6025 84.392C70.8745 84.232 71.0905 84.004 71.2505 83.708C71.4185 83.412 71.5025 83.06 71.5025 82.652ZM76.1193 77.12V86H74.4393V77.12H76.1193ZM83.9592 82.532C83.9592 82.772 83.9432 82.988 83.9112 83.18H79.0512C79.0912 83.66 79.2592 84.036 79.5552 84.308C79.8512 84.58 80.2152 84.716 80.6472 84.716C81.2712 84.716 81.7152 84.448 81.9792 83.912H83.7912C83.5992 84.552 83.2312 85.08 82.6872 85.496C82.1432 85.904 81.4752 86.108 80.6832 86.108C80.0432 86.108 79.4672 85.968 78.9552 85.688C78.4512 85.4 78.0552 84.996 77.7672 84.476C77.4872 83.956 77.3472 83.356 77.3472 82.676C77.3472 81.988 77.4872 81.384 77.7672 80.864C78.0472 80.344 78.4392 79.944 78.9432 79.664C79.4472 79.384 80.0272 79.244 80.6832 79.244C81.3152 79.244 81.8792 79.38 82.3752 79.652C82.8792 79.924 83.2672 80.312 83.5392 80.816C83.8192 81.312 83.9592 81.884 83.9592 82.532ZM82.2192 82.052C82.2112 81.62 82.0552 81.276 81.7512 81.02C81.4472 80.756 81.0752 80.624 80.6352 80.624C80.2192 80.624 79.8672 80.752 79.5792 81.008C79.2992 81.256 79.1272 81.604 79.0632 82.052H82.2192ZM87.7294 86.108C87.1854 86.108 86.6974 86.012 86.2654 85.82C85.8334 85.62 85.4894 85.352 85.2334 85.016C84.9854 84.68 84.8494 84.308 84.8254 83.9H86.5174C86.5494 84.156 86.6734 84.368 86.8894 84.536C87.1134 84.704 87.3894 84.788 87.7174 84.788C88.0374 84.788 88.2854 84.724 88.4614 84.596C88.6454 84.468 88.7374 84.304 88.7374 84.104C88.7374 83.888 88.6254 83.728 88.4014 83.624C88.1854 83.512 87.8374 83.392 87.3574 83.264C86.8614 83.144 86.4534 83.02 86.1334 82.892C85.8214 82.764 85.5494 82.568 85.3174 82.304C85.0934 82.04 84.9814 81.684 84.9814 81.236C84.9814 80.868 85.0854 80.532 85.2934 80.228C85.5094 79.924 85.8134 79.684 86.2054 79.508C86.6054 79.332 87.0734 79.244 87.6094 79.244C88.4014 79.244 89.0334 79.444 89.5054 79.844C89.9774 80.236 90.2374 80.768 90.2854 81.44H88.6774C88.6534 81.176 88.5414 80.968 88.3414 80.816C88.1494 80.656 87.8894 80.576 87.5614 80.576C87.2574 80.576 87.0214 80.632 86.8534 80.744C86.6934 80.856 86.6134 81.012 86.6134 81.212C86.6134 81.436 86.7254 81.608 86.9494 81.728C87.1734 81.84 87.5214 81.956 87.9934 82.076C88.4734 82.196 88.8694 82.32 89.1814 82.448C89.4934 82.576 89.7614 82.776 89.9854 83.048C90.2174 83.312 90.3374 83.664 90.3454 84.104C90.3454 84.488 90.2374 84.832 90.0214 85.136C89.8134 85.44 89.5094 85.68 89.1094 85.856C88.7174 86.024 88.2574 86.108 87.7294 86.108Z" fill="white"/>
<path d="M58.75 59.5C56.3268 59.5 54.263 58.6477 52.5585 56.9432C50.854 55.2387 50.0012 53.1743 50 50.75C49.9988 48.3257 50.8517 46.2618 52.5585 44.5585C54.2653 42.8552 56.3292 42.0023 58.75 42C61.1708 41.9977 63.2353 42.8505 64.9433 44.5585C66.6513 46.2665 67.5035 48.3303 67.5 50.75C67.4965 53.1697 66.6443 55.2341 64.9433 56.9432C63.2423 58.6524 61.1778 59.5047 58.75 59.5ZM58.75 57.75C60.675 57.75 62.3229 57.0646 63.6938 55.6938C65.0646 54.3229 65.75 52.675 65.75 50.75C65.75 48.825 65.0646 47.1771 63.6938 45.8063C62.3229 44.4354 60.675 43.75 58.75 43.75C56.825 43.75 55.1771 44.4354 53.8063 45.8063C52.4354 47.1771 51.75 48.825 51.75 50.75C51.75 52.675 52.4354 54.3229 53.8063 55.6938C55.1771 57.0646 56.825 57.75 58.75 57.75ZM38.8263 56C38.0213 56 37.3487 55.7305 36.8085 55.1915C36.2683 54.6525 35.9988 53.9793 36 53.172V41.153C36 40.9197 36.0443 40.6525 36.133 40.3515C36.2217 40.0505 36.3098 39.7833 36.3973 39.55L40.2998 30.8262H38.8945C38.5107 30.8262 38.2132 30.7207 38.002 30.5095C37.7908 30.2983 37.6841 30.0003 37.6818 29.6153V29.2128C37.6818 28.8278 37.7879 28.5297 38.0003 28.3185C38.2126 28.1073 38.5101 28.0012 38.8928 28H48.8555C49.2393 28 49.5368 28.1062 49.748 28.3185C49.9592 28.5308 50.0659 28.8283 50.0683 29.211V29.6153C50.0683 29.9991 49.9621 30.2966 49.7498 30.5078C49.5374 30.7189 49.2399 30.8251 48.8573 30.8262H47.4485L51.8183 40.7085C51.5779 40.8427 51.3388 41.0025 51.1008 41.188C50.8628 41.3735 50.6259 41.5812 50.3903 41.811L45.5708 30.828H42.1793L37.75 40.8485V53.172C37.75 53.487 37.8509 53.7454 38.0528 53.9472C38.2546 54.1491 38.513 54.25 38.828 54.25H47.0058C47.0839 54.5708 47.1848 54.8788 47.3085 55.174C47.4333 55.4692 47.5698 55.7445 47.718 56H38.8263ZM58.75 39.578C57.9963 39.375 57.3704 38.9684 56.8723 38.3582C56.3741 37.7481 56.125 37.0323 56.125 36.211C56.125 35.3908 56.3741 34.6751 56.8723 34.0638C57.3704 33.4536 57.9963 33.0476 58.75 32.8458V39.578ZM58.75 39.578C58.9518 38.8232 59.3578 38.1967 59.968 37.6985C60.5782 37.2003 61.2939 36.9512 62.1153 36.9512C62.9366 36.9512 63.6523 37.2003 64.2625 37.6985C64.8727 38.1967 65.2787 38.8232 65.4805 39.578H58.75Z" fill="white"/>
</svg>
