<svg width="39" height="40" viewBox="0 0 39 40" fill="none" xmlns="http://www.w3.org/2000/svg">
<path d="M19.5 6.66602C21.2239 6.66602 22.8772 7.36839 24.0962 8.61864C25.3152 9.86888 26 11.5646 26 13.3327C26 15.1008 25.3152 16.7965 24.0962 18.0467C22.8772 19.297 21.2239 19.9993 19.5 19.9993C17.7761 19.9993 16.1228 19.297 14.9038 18.0467C13.6848 16.7965 13 15.1008 13 13.3327C13 11.5646 13.6848 9.86888 14.9038 8.61864C16.1228 7.36839 17.7761 6.66602 19.5 6.66602ZM19.5 9.99935C18.638 9.99935 17.8114 10.3505 17.2019 10.9757C16.5924 11.6008 16.25 12.4486 16.25 13.3327C16.25 14.2167 16.5924 15.0646 17.2019 15.6897C17.8114 16.3148 18.638 16.666 19.5 16.666C20.362 16.666 21.1886 16.3148 21.7981 15.6897C22.4076 15.0646 22.75 14.2167 22.75 13.3327C22.75 12.4486 22.4076 11.6008 21.7981 10.9757C21.1886 10.3505 20.362 9.99935 19.5 9.99935ZM19.5 21.666C23.8388 21.666 32.5 23.8827 32.5 28.3327V33.3327H6.5V28.3327C6.5 23.8827 15.1613 21.666 19.5 21.666ZM19.5 24.8327C14.6737 24.8327 9.5875 27.266 9.5875 28.3327V30.166H29.4125V28.3327C29.4125 27.266 24.3263 24.8327 19.5 24.8327Z" fill="url(#paint0_linear_3208_3688)"/>
<defs>
<linearGradient id="paint0_linear_3208_3688" x1="19.5" y1="6.66602" x2="19.5" y2="33.3327" gradientUnits="userSpaceOnUse">
<stop stop-color="#5720B5"/>
<stop offset="1" stop-color="#260E4F"/>
</linearGradient>
</defs>
</svg>
