<svg width="40" height="40" viewBox="0 0 40 40" fill="none" xmlns="http://www.w3.org/2000/svg">
<path d="M28.3333 18.0085C28.3333 17.4318 28.3333 17.1435 28.42 16.8868C28.6717 16.1401 29.3367 15.8518 30.0033 15.5485C30.75 15.2068 31.1233 15.0368 31.495 15.0068C31.915 14.9735 32.3367 15.0635 32.6967 15.2651C33.1733 15.5318 33.5067 16.0418 33.8467 16.4551C35.4183 18.3651 36.205 19.3201 36.4917 20.3718C36.725 21.2218 36.725 22.1118 36.4917 22.9601C36.0733 24.4968 34.7483 25.7835 33.7667 26.9768C33.265 27.5851 33.0133 27.8901 32.6967 28.0685C32.3305 28.2715 31.9123 28.3614 31.495 28.3268C31.1233 28.2968 30.75 28.1268 30.0017 27.7851C29.335 27.4818 28.6717 27.1935 28.42 26.4468C28.3333 26.1901 28.3333 25.9018 28.3333 25.3251V18.0085ZM11.6667 18.0085C11.6667 17.2818 11.6467 16.6301 11.06 16.1201C10.8467 15.9351 10.5633 15.8068 9.99833 15.5485C9.25 15.2085 8.87667 15.0368 8.505 15.0068C7.39333 14.9168 6.795 15.6768 6.155 16.4568C4.58167 18.3651 3.795 19.3201 3.50667 20.3735C3.27467 21.2206 3.27467 22.1146 3.50667 22.9618C3.92667 24.4968 5.25333 25.7851 6.23333 26.9768C6.85167 27.7268 7.44333 28.4118 8.505 28.3268C8.87667 28.2968 9.25 28.1268 9.99833 27.7851C10.565 27.5285 10.8467 27.3985 11.06 27.2135C11.6467 26.7035 11.6667 26.0518 11.6667 25.3268V18.0085Z" stroke="url(#paint0_linear_3208_3702)" stroke-width="3" stroke-linecap="round" stroke-linejoin="round"/>
<path d="M8.33334 15C8.33334 9.47667 13.5567 5 20 5C26.4433 5 31.6667 9.47667 31.6667 15M31.6667 28.3333V29.6667C31.6667 32.6117 28.6833 35 25 35H21.6667" stroke="url(#paint1_linear_3208_3702)" stroke-width="3" stroke-linecap="round" stroke-linejoin="round"/>
<defs>
<linearGradient id="paint0_linear_3208_3702" x1="19.9997" y1="14.9995" x2="19.9997" y2="28.334" gradientUnits="userSpaceOnUse">
<stop stop-color="#5720B5"/>
<stop offset="1" stop-color="#260E4F"/>
</linearGradient>
<linearGradient id="paint1_linear_3208_3702" x1="20" y1="5" x2="20" y2="35" gradientUnits="userSpaceOnUse">
<stop stop-color="#5720B5"/>
<stop offset="1" stop-color="#260E4F"/>
</linearGradient>
</defs>
</svg>
