<svg width="99" height="56" viewBox="0 0 99 56" fill="none" xmlns="http://www.w3.org/2000/svg">
<path d="M8.68 18.725L14.63 34.545H14.7L20.685 18.725H27.615V21.56L26.46 21.665C25.76 21.735 25.4217 22.1433 25.445 22.89L26.32 38.92L28.49 39.025V42H20.055V39.165L21.315 39.06C21.945 39.0133 22.2483 38.71 22.225 38.15L21.56 25.795H21.49L16.1 39.76H12.775L7.455 25.935H7.385L6.685 38.92L8.96 39.025V42H0.7V39.165L1.96 39.06C2.49667 39.0133 2.78833 38.6983 2.835 38.115L3.78 21.84L1.645 21.7V18.725H8.68ZM38.3945 39.445C40.9378 39.445 42.2095 37.3917 42.2095 33.285C42.2095 31.2083 41.9178 29.6333 41.3345 28.56C40.7745 27.4867 39.8178 26.95 38.4645 26.95C37.1345 26.95 36.1545 27.4633 35.5245 28.49C34.8945 29.5167 34.5795 30.9167 34.5795 32.69C34.5795 35.98 35.1861 38.045 36.3995 38.885C36.9361 39.2583 37.6011 39.445 38.3945 39.445ZM30.3445 33.18C30.3445 31.4533 30.6011 29.96 31.1145 28.7C31.6278 27.4167 32.3161 26.4367 33.1795 25.76C34.8361 24.5 36.6678 23.87 38.6745 23.87C40.0745 23.87 41.2528 24.1033 42.2095 24.57C43.1895 25.0133 43.9478 25.5383 44.4845 26.145C45.0445 26.7283 45.5111 27.5917 45.8845 28.735C46.2811 29.855 46.4795 31.185 46.4795 32.725C46.4795 35.945 45.6978 38.3833 44.1345 40.04C42.5711 41.6967 40.5645 42.525 38.1145 42.525C35.6878 42.525 33.7861 41.7433 32.4095 40.18C31.0328 38.5933 30.3445 36.26 30.3445 33.18ZM33.3195 20.65V17.71H43.3645V20.65H33.3195ZM51.0057 38.08V28.385C51.0057 28.0117 50.9357 27.755 50.7957 27.615C50.679 27.4517 50.4573 27.3583 50.1307 27.335L48.6607 27.23V24.395H54.5757V27.02C54.9957 26.11 55.649 25.3633 56.5357 24.78C57.4223 24.1733 58.4373 23.87 59.5807 23.87C60.7473 23.87 61.8557 24.1267 62.9057 24.64V29.855L59.6507 30.1V28.49C59.6507 28.0233 59.534 27.7317 59.3007 27.615C59.044 27.4983 58.729 27.44 58.3557 27.44C57.4223 27.44 56.6523 27.7783 56.0457 28.455C55.4623 29.1083 55.1707 29.9483 55.1707 30.975V39.095L58.2157 39.235V42H48.8357V39.34L49.9907 39.235C50.3407 39.1883 50.5973 39.095 50.7607 38.955C50.924 38.7917 51.0057 38.5 51.0057 38.08ZM83.2109 39.235V42H77.5409V39.725C76.2575 41.545 74.3675 42.455 71.8709 42.455C68.2542 42.455 66.4459 40.4367 66.4459 36.4V28.315C66.4459 27.685 66.1542 27.3583 65.5709 27.335L64.4509 27.265V24.395H70.6109V35.49C70.6109 36.7267 70.7859 37.66 71.1359 38.29C71.4859 38.92 72.2092 39.235 73.3059 39.235C74.4025 39.235 75.2775 38.8967 75.9309 38.22C76.6075 37.5433 76.9459 36.7267 76.9459 35.77V28.385C76.9459 28.0117 76.8759 27.755 76.7359 27.615C76.6192 27.4517 76.3975 27.3583 76.0709 27.335L74.9509 27.265V24.395H81.1109V38.115C81.1109 38.4883 81.1692 38.745 81.2859 38.885C81.4025 39.0017 81.6359 39.0833 81.9859 39.13L83.2109 39.235Z" fill="url(#paint0_linear_3329_5014)"/>
<path d="M82.612 21.992L84.061 17.798L83.494 17.744V17.015H85.555L87.391 22.208H87.4L87.913 22.235V23H85.591V22.271L85.933 22.244C86.035 22.232 86.104 22.208 86.14 22.172C86.176 22.136 86.179 22.07 86.149 21.974L85.96 21.416H83.854L83.584 22.208L84.124 22.235V23H82.045V22.271L82.342 22.244C82.468 22.232 82.558 22.148 82.612 21.992ZM84.907 18.023L84.07 20.588H85.744L84.934 18.023H84.907ZM88.5842 23.855V19.499C88.5842 19.397 88.5662 19.328 88.5302 19.292C88.5002 19.25 88.4432 19.229 88.3592 19.229L87.9812 19.202V18.473H89.5022V19.058C89.5982 18.878 89.7722 18.713 90.0242 18.563C90.2762 18.413 90.5762 18.338 90.9242 18.338C92.0102 18.338 92.5532 19.1 92.5532 20.624C92.5532 21.434 92.3762 22.055 92.0222 22.487C91.6682 22.919 91.1882 23.135 90.5822 23.135C90.2222 23.135 89.9012 23.048 89.6192 22.874V24.116L90.3482 24.152V24.863H88.0262V24.179L88.3232 24.152C88.4132 24.14 88.4792 24.113 88.5212 24.071C88.5632 24.035 88.5842 23.963 88.5842 23.855ZM91.4372 20.714C91.4372 19.712 91.1342 19.211 90.5282 19.211C90.2762 19.211 90.0602 19.289 89.8802 19.445C89.7062 19.595 89.6192 19.775 89.6192 19.985V22.055C89.8472 22.205 90.1232 22.28 90.4472 22.28C90.7772 22.28 91.0232 22.13 91.1852 21.83C91.3532 21.53 91.4372 21.158 91.4372 20.714ZM93.6994 23.855V19.499C93.6994 19.397 93.6814 19.328 93.6454 19.292C93.6154 19.25 93.5584 19.229 93.4744 19.229L93.0964 19.202V18.473H94.6174V19.058C94.7134 18.878 94.8874 18.713 95.1394 18.563C95.3914 18.413 95.6914 18.338 96.0394 18.338C97.1254 18.338 97.6684 19.1 97.6684 20.624C97.6684 21.434 97.4914 22.055 97.1374 22.487C96.7834 22.919 96.3034 23.135 95.6974 23.135C95.3374 23.135 95.0164 23.048 94.7344 22.874V24.116L95.4634 24.152V24.863H93.1414V24.179L93.4384 24.152C93.5284 24.14 93.5944 24.113 93.6364 24.071C93.6784 24.035 93.6994 23.963 93.6994 23.855ZM96.5524 20.714C96.5524 19.712 96.2494 19.211 95.6434 19.211C95.3914 19.211 95.1754 19.289 94.9954 19.445C94.8214 19.595 94.7344 19.775 94.7344 19.985V22.055C94.9624 22.205 95.2384 22.28 95.5624 22.28C95.8924 22.28 96.1384 22.13 96.3004 21.83C96.4684 21.53 96.5524 21.158 96.5524 20.714Z" fill="url(#paint1_linear_3329_5014)"/>
<defs>
<linearGradient id="paint0_linear_3329_5014" x1="42.5" y1="0" x2="42.5" y2="56" gradientUnits="userSpaceOnUse">
<stop stop-color="#521DAA"/>
<stop offset="1" stop-color="#280A50"/>
</linearGradient>
<linearGradient id="paint1_linear_3329_5014" x1="90.5" y1="12" x2="90.5" y2="26" gradientUnits="userSpaceOnUse">
<stop stop-color="#521DAA"/>
<stop offset="1" stop-color="#280A50"/>
</linearGradient>
</defs>
</svg>
