<svg width="39" height="39" viewBox="0 0 39 39" fill="none" xmlns="http://www.w3.org/2000/svg">
<path d="M19.5 3.25C17.366 3.25 15.2529 3.67032 13.2814 4.48696C11.3099 5.3036 9.51847 6.50056 8.00952 8.00951C4.96205 11.057 3.25 15.1902 3.25 19.5C3.2358 23.2523 4.53504 26.8914 6.9225 29.7862L3.6725 33.0362C3.44702 33.2648 3.29428 33.5549 3.23355 33.8702C3.17281 34.1854 3.20681 34.5116 3.33125 34.8075C3.46622 35.0999 3.68502 35.3456 3.95988 35.5134C4.23474 35.6812 4.55326 35.7635 4.875 35.75H19.5C23.8098 35.75 27.943 34.038 30.9905 30.9905C34.038 27.943 35.75 23.8098 35.75 19.5C35.75 15.1902 34.038 11.057 30.9905 8.00951C27.943 4.96205 23.8098 3.25 19.5 3.25ZM19.5 32.5H8.79125L10.3025 30.9888C10.6052 30.6843 10.775 30.2724 10.775 29.8431C10.775 29.4138 10.6052 29.002 10.3025 28.6975C8.17471 26.5721 6.84966 23.7746 6.55313 20.7818C6.25659 17.789 7.00691 14.7859 8.67625 12.2842C10.3456 9.78256 12.8307 7.93708 15.7081 7.06221C18.5855 6.18733 21.6773 6.33718 24.4566 7.48623C27.2359 8.63529 29.5309 10.7124 30.9505 13.3638C32.37 16.0152 32.8264 19.0768 32.2418 22.0269C31.6573 24.977 30.0679 27.6332 27.7445 29.5429C25.4211 31.4526 22.5075 32.4976 19.5 32.5Z" fill="url(#paint0_linear_3208_3718)"/>
<defs>
<linearGradient id="paint0_linear_3208_3718" x1="19.4771" y1="3.25" x2="19.4771" y2="35.7514" gradientUnits="userSpaceOnUse">
<stop stop-color="#5720B5"/>
<stop offset="1" stop-color="#260E4F"/>
</linearGradient>
</defs>
</svg>
